<svg width="306" height="305" viewBox="0 0 306 305" fill="none" xmlns="http://www.w3.org/2000/svg">
<rect x="43.6406" width="43.7264" height="43.7264" fill="white"/>
<rect y="44" width="43.7264" height="43.7264" fill="white"/>
<rect x="262" y="44" width="43.7264" height="43.7264" fill="white"/>
<rect x="43.6406" y="88" width="43.7264" height="43.7264" fill="white"/>
<rect y="88" width="43.7264" height="43.7264" fill="white"/>
<rect x="262" y="88" width="43.7264" height="43.7264" fill="white"/>
<rect x="43.6406" y="132" width="43.7264" height="43.7264" fill="white"/>
<rect y="132" width="43.7264" height="43.7264" fill="white"/>
<rect x="262" y="132" width="43.7264" height="43.7264" fill="white"/>
<rect x="43.6406" y="176" width="43.7264" height="43.7264" fill="white"/>
<rect y="176" width="43.7264" height="43.7264" fill="white"/>
<rect x="262" y="176" width="43.7264" height="43.7264" fill="white"/>
<rect y="220" width="43.7264" height="43.7264" fill="white"/>
<rect x="262" y="220" width="43.7264" height="43.7264" fill="white"/>
<rect x="87.3672" width="43.7264" height="43.7264" fill="white"/>
<rect x="87.3672" y="44" width="43.7264" height="43.7264" fill="white"/>
<rect x="87.3672" y="132" width="43.7264" height="43.7264" fill="white"/>
<rect x="87.3672" y="220" width="43.7264" height="43.7264" fill="white"/>
<rect x="86" y="261" width="43.7264" height="43.7264" fill="white"/>
<rect x="131.094" width="43.7264" height="43.7264" fill="white"/>
<rect x="131.094" y="44" width="43.7264" height="43.7264" fill="white"/>
<rect x="131.094" y="88" width="43.7264" height="43.7264" fill="white"/>
<rect x="131.094" y="176" width="43.7264" height="43.7264" fill="white"/>
<rect x="131.094" y="220" width="43.7264" height="43.7264" fill="white"/>
<rect x="174.82" width="43.7264" height="43.7264" fill="white"/>
<rect x="174.82" y="44" width="43.7264" height="43.7264" fill="white"/>
<rect x="174.82" y="132" width="43.7264" height="43.7264" fill="white"/>
<rect x="174.82" y="220" width="43.7264" height="43.7264" fill="white"/>
<rect x="174" y="261" width="43.7264" height="43.7264" fill="white"/>
<rect x="218" y="261" width="43.7264" height="43.7264" fill="white"/>
<rect x="130" y="261" width="43.7264" height="43.7264" fill="white"/>
<rect x="41.8921" y="261" width="43.7264" height="43.7264" fill="white"/>
<rect x="218.547" width="43.7264" height="43.7264" fill="white"/>
<rect x="218.547" y="88" width="43.7264" height="43.7264" fill="white"/>
<rect x="218.547" y="132" width="43.7264" height="43.7264" fill="white"/>
<rect x="218.547" y="176" width="43.7264" height="43.7264" fill="white"/>
</svg>
