<svg width="32" height="32" viewBox="0 0 32 32" fill="none" xmlns="http://www.w3.org/2000/svg">
<g clip-path="url(#clip0)">
<rect y="11.1431" width="3.57143" height="3.57143" fill="white"/>
<rect x="3.57129" y="7.57129" width="3.57143" height="3.57143" fill="white"/>
<rect x="7.14307" y="11.1431" width="3.57143" height="3.57143" fill="white"/>
<rect x="3.57129" y="14.7144" width="3.57143" height="3.57143" fill="white"/>
<rect x="7.14307" y="18.2856" width="3.57143" height="3.57143" fill="white"/>
<rect x="10.7144" y="21.8572" width="3.57143" height="3.57143" fill="white"/>
<rect x="14.2856" y="25.4285" width="3.57143" height="3.57143" fill="white"/>
<rect x="17.8572" y="21.8572" width="3.57143" height="3.57143" fill="white"/>
<rect x="21.4285" y="18.2856" width="3.57143" height="3.57143" fill="white"/>
<rect x="25" y="14.7144" width="3.57143" height="3.57143" fill="white"/>
<rect x="21.4285" y="11.1431" width="3.57143" height="3.57143" fill="white"/>
<rect x="28.5715" y="11.1431" width="3.57143" height="3.57143" fill="white"/>
<rect x="25" y="7.57129" width="3.57143" height="3.57143" fill="white"/>
<rect x="14.2856" y="11.1431" width="3.57143" height="3.57143" fill="white"/>
<rect x="7.14307" y="4" width="17.8571" height="3.57143" fill="white"/>
</g>
<defs>
<clipPath id="clip0">
<rect width="32" height="32" fill="white"/>
</clipPath>
</defs>
</svg>
