<svg width="75" height="69" viewBox="0 0 75 69" fill="none" xmlns="http://www.w3.org/2000/svg">
<rect y="63" width="75" height="6" fill="#C4C4C4"/>
<rect x="33.85" y="30.9851" width="6.28744" height="6.28744" fill="white"/>
<rect x="27.5626" y="37.1888" width="6.28744" height="6.28744" fill="white"/>
<rect x="52.673" y="37.1888" width="6.28744" height="6.28744" fill="white"/>
<rect x="21.2752" y="30.9016" width="6.28744" height="6.28744" fill="white"/>
<rect x="15" y="24.6139" width="6.28744" height="6.28744" fill="white"/>
<rect x="15" y="12.0389" width="6.28744" height="6.28744" fill="white"/>
<rect x="15" y="6.03928" width="6.28744" height="6.28744" fill="white"/>
<rect x="21.3269" width="6.28744" height="6.28744" fill="white"/>
<rect x="27.6144" width="6.28744" height="6.28744" fill="white"/>
<rect x="33.9016" width="6.28744" height="6.28744" fill="white"/>
<rect x="15" y="18.3264" width="6.28744" height="6.28744" fill="white"/>
<rect x="52.7125" y="18.3264" width="6.28744" height="6.28744" fill="white"/>
<rect x="40.389" y="18.6928" width="6.28744" height="6.28744" fill="white"/>
<rect x="27.4787" y="12.366" width="6.28744" height="6.28744" fill="white"/>
<rect x="27.4787" y="18.6928" width="6.28744" height="6.28744" fill="white"/>
<rect x="40.1893" width="6.28744" height="6.28744" fill="white"/>
<rect x="40.1376" y="37.1888" width="6.28744" height="6.28744" fill="white"/>
<rect x="46.4249" y="30.9016" width="6.28744" height="6.28744" fill="white"/>
<rect x="52.7125" y="25.6139" width="6.28744" height="6.28744" fill="white"/>
<rect x="52.7125" y="12.0389" width="6.28744" height="6.28744" fill="white"/>
<rect x="46.4767" y="5.75162" width="6.28744" height="6.28744" fill="white"/>
</svg>
