<svg width="32" height="32" viewBox="0 0 32 32" fill="none" xmlns="http://www.w3.org/2000/svg">
<rect x="14" y="2" width="4" height="4" fill="white"/>
<rect x="10" y="6" width="4" height="4" fill="white"/>
<rect x="6" y="10" width="4" height="4" fill="white"/>
<rect x="2" y="14" width="4" height="4" fill="white"/>
<rect x="6" y="18" width="4" height="4" fill="white"/>
<rect x="10" y="22" width="4" height="4" fill="white"/>
<rect x="14" y="26" width="4" height="4" fill="white"/>
<rect x="18" y="22" width="4" height="4" fill="white"/>
<rect x="22" y="18" width="4" height="4" fill="white"/>
<rect x="26" y="14" width="4" height="4" fill="white"/>
<rect x="22" y="10" width="4" height="4" fill="white"/>
<rect x="18" y="6" width="4" height="4" fill="white"/>
<rect x="14" y="10" width="4" height="4" fill="white"/>
<rect x="14" y="18" width="4" height="4" fill="white"/>
<rect x="18" y="14" width="4" height="4" fill="white"/>
<rect x="10" y="14" width="4" height="4" fill="white"/>
</svg>
